# xmcd
#
# Track frame offsets:
#	150
#	11625
#	24976
#	37352
#	52128
#	68179
#	82505
#	94731
#	109507
#	122183
#
# Disc length: 1790 seconds
#
# Revision: 1
# Processed by: cddbd v1.5.2PL0 Copyright (c) Steve Scherf et al.
# Submitted via: audiograbber 1.83.01
#
DISCID=7c06fc0a
DTITLE=Mel Tillis - Southern Rain
DYEAR=1980
DGENRE=Country
TTITLE0=Southern Rain
TTITLE1=One Night Fever
TTITLE2=Time Has Treated You Well
TTITLE3=A Million Old goodbyes
TTITLE4=Shame on You Shame on Me
TTITLE5=Pyramid Of Cans
TTITLE6=Forgive Me For Giving You The Blues
TTITLE7=Here's Lookin' At You
TTITLE8=Louisiana Lonely
TTITLE9=Sweet Desire
EXTD=
EXTT0=
EXTT1=
EXTT2=
EXTT3=
EXTT4=
EXTT5=
EXTT6=
EXTT7=
EXTT8=
EXTT9=
PLAYORDER=
